<svg width="50" height="50" viewBox="0 0 50 50" fill="none" xmlns="http://www.w3.org/2000/svg">
<path d="M25 8.33333C34.1875 8.33333 41.6666 15.8125 41.6666 25C41.6666 34.1875 34.1875 41.6667 25 41.6667C15.8125 41.6667 8.33331 34.1875 8.33331 25C8.33331 15.8125 15.8125 8.33333 25 8.33333ZM25 4.16666C13.5 4.16666 4.16664 13.5 4.16664 25C4.16664 36.5 13.5 45.8333 25 45.8333C36.5 45.8333 45.8333 36.5 45.8333 25C45.8333 13.5 36.5 4.16666 25 4.16666ZM27.0833 25V16.6667H22.9166V25H16.6666L25 33.3333L33.3333 25L27.0833 25Z" fill="#CE3E3E"/>
</svg>
