<svg width="50" height="50" viewBox="0 0 50 50" fill="none" xmlns="http://www.w3.org/2000/svg">
<path d="M25 41.6667C15.8125 41.6667 8.33335 34.1875 8.33335 25C8.33335 15.8125 15.8125 8.33333 25 8.33333C34.1875 8.33333 41.6667 15.8125 41.6667 25C41.6667 34.1875 34.1875 41.6667 25 41.6667ZM25 45.8333C36.5 45.8333 45.8334 36.5 45.8334 25C45.8334 13.5 36.5 4.16667 25 4.16667C13.5 4.16667 4.16669 13.5 4.16669 25C4.16669 36.5 13.5 45.8333 25 45.8333ZM22.9167 25V33.3333H27.0834V25H33.3334L25 16.6667L16.6667 25H22.9167Z" fill="#78A55A"/>
</svg>
