<svg width="45" height="45" viewBox="0 0 45 45" fill="none" xmlns="http://www.w3.org/2000/svg">
<path d="M26.8289 45H18.1711C17.5939 45 17.0936 44.8125 16.6704 44.4375C16.2471 44.0625 15.997 43.5938 15.92 43.0312L15.2274 37.8C14.7271 37.6125 14.2562 37.3875 13.8144 37.125C13.3711 36.8625 12.9378 36.5813 12.5146 36.2812L7.493 38.3062C6.95429 38.4937 6.41558 38.5125 5.87687 38.3625C5.33815 38.2125 4.91488 37.8938 4.60704 37.4062L0.335821 30.15C0.027985 29.6625 -0.0682136 29.1375 0.0472248 28.575C0.162663 28.0125 0.451259 27.5625 0.913013 27.225L5.24195 24.0188C5.20347 23.7563 5.18423 23.5027 5.18423 23.2582V21.7395C5.18423 21.4965 5.20347 21.2437 5.24195 20.9812L0.913013 17.775C0.451259 17.4375 0.162663 16.9875 0.0472248 16.425C-0.0682136 15.8625 0.027985 15.3375 0.335821 14.85L4.60704 7.59375C4.8764 7.06875 5.28967 6.74025 5.84685 6.60825C6.40557 6.47775 6.95429 6.50625 7.493 6.69375L12.5146 8.71875C12.9378 8.41875 13.3804 8.1375 13.8421 7.875C14.3039 7.6125 14.7656 7.3875 15.2274 7.2L15.92 1.96875C15.997 1.40625 16.2471 0.9375 16.6704 0.5625C17.0936 0.1875 17.5939 0 18.1711 0H26.8289C27.4061 0 27.9064 0.1875 28.3296 0.5625C28.7529 0.9375 29.003 1.40625 29.08 1.96875L29.7726 7.2C30.2729 7.3875 30.7446 7.6125 31.1879 7.875C31.6296 8.1375 32.0621 8.41875 32.4854 8.71875L37.507 6.69375C38.0457 6.50625 38.5844 6.4875 39.1231 6.6375C39.6618 6.7875 40.0851 7.10625 40.393 7.59375L44.6642 14.85C44.972 15.3375 45.0682 15.8625 44.9528 16.425C44.8373 16.9875 44.5487 17.4375 44.087 17.775L39.758 20.9812C39.7965 21.2437 39.8158 21.4965 39.8158 21.7395V23.2582C39.8158 23.5027 39.7773 23.7563 39.7003 24.0188L44.0293 27.225C44.491 27.5625 44.7796 28.0125 44.8951 28.575C45.0105 29.1375 44.9143 29.6625 44.6065 30.15L40.3352 37.35C40.0274 37.8375 39.5949 38.166 39.0377 38.3355C38.479 38.5035 37.9303 38.4937 37.3916 38.3062L32.4854 36.2812C32.0621 36.5813 31.6196 36.8625 31.1579 37.125C30.6961 37.3875 30.2344 37.6125 29.7726 37.8L29.08 43.0312C29.003 43.5938 28.7529 44.0625 28.3296 44.4375C27.9064 44.8125 27.4061 45 26.8289 45ZM22.6154 30.375C24.8472 30.375 26.752 29.6063 28.3296 28.0688C29.9073 26.5313 30.6961 24.675 30.6961 22.5C30.6961 20.325 29.9073 18.4687 28.3296 16.9312C26.752 15.3937 24.8472 14.625 22.6154 14.625C20.3451 14.625 18.4304 15.3937 16.8712 16.9312C15.3136 18.4687 14.5347 20.325 14.5347 22.5C14.5347 24.675 15.3136 26.5313 16.8712 28.0688C18.4304 29.6063 20.3451 30.375 22.6154 30.375Z" fill="white"/>
</svg>
